<svg width="108" height="32" viewBox="0 0 108 32" fill="none" xmlns="http://www.w3.org/2000/svg">
<path d="M51.796 2.82458V15.9063L51.6302 16.0441L51.4643 16.1819L51.3054 16.3267L51.1533 16.4714L51.0082 16.6162L50.8631 16.7678L50.7249 16.9194L50.5867 17.0711V2.82458H36.0534V14.7346H34.851V2.82458H20.3178V14.7552H19.1153V2.82458H4.58209V16.4232L0.871033 28.7536H4.13289L5.77073 23.2948H6.24066L8.94965 28.7536H12.8888L10.2627 23.2948H16.2197L14.5681 28.7536H18.1271L19.758 23.3086H20.5458V23.2948H21.6653H21.7552H28.4793L26.9037 28.7398H30.4972L32.0245 23.2948H33.6416L33.683 28.7398H36.6961L40.1584 23.2948H42.4251L41.2503 28.7398H44.7885L45.9426 23.2948H47.9882L47.9744 23.605L47.9817 23.922L47.9955 24.2253L48.0231 24.5285L48.0438 24.6733L48.0646 24.818L48.0922 24.9628L48.1198 25.1075L48.1543 25.2522L48.1889 25.3901L48.2303 25.5279L48.2717 25.6658L48.3201 25.8036L48.3686 25.9346L48.4238 26.0655L48.4791 26.1896L48.5413 26.3206L48.6036 26.4446L48.6727 26.5618L48.7418 26.6858L48.8179 26.803L48.9008 26.9133L48.9837 27.0305L49.0736 27.1338L49.1634 27.2441L49.2533 27.3475L49.3569 27.4509L49.4606 27.5474L49.5919 27.6577L49.7232 27.768L49.8614 27.8713L50.0065 27.9678L50.1516 28.0643L50.2968 28.1539L50.4488 28.2297L50.6078 28.3124L50.7598 28.3813L50.9187 28.4502L51.0777 28.5123L51.2435 28.5743L51.4094 28.6295L51.5753 28.6777L51.7411 28.726L51.907 28.7673L52.2387 28.8431L52.5773 28.8983L52.909 28.9465L53.2407 28.9879L53.5655 29.0154L53.8834 29.0293L54.1944 29.0431H54.4916L54.8924 29.0365L55.2932 29.03L55.7009 29.0093L56.1087 28.9886L56.5164 28.9541L56.9241 28.9196L57.3319 28.8783L57.7396 28.83L58.1542 28.7749L58.5689 28.7128L58.9835 28.6439L59.3982 28.575L59.8128 28.4992L60.2275 28.4165L60.6421 28.3338L61.0636 28.2373L62.2938 23.2955H66.3296V2.82522H51.7964L51.796 2.82458ZM5.92967 22.7848L5.95038 22.709L5.9988 22.7848H5.92967ZM18.5901 15.4514L18.3828 16.1475L16.4478 22.5574L16.3717 22.7848H10.0139L9.52322 21.7372L16.3717 14.7552H11.9696L6.61381 20.5103L8.3484 14.7552H5.10037V3.34152H18.5901V15.4514H18.5901ZM22.3426 20.8687L22.2389 20.8753L22.1422 20.8818L22.0385 20.8884H21.928H21.7828H21.6584L21.541 20.8949H21.4304L20.5665 20.8884L20.9674 19.4134L21.154 18.6828L21.6101 16.9666H21.7552H21.9072L22.0523 16.9601H22.1906H22.8609L23.2686 16.9666L23.6418 16.9804L23.8077 16.987L23.9666 17.0008L24.1186 17.0215L24.2569 17.0422L24.3813 17.0628L24.4987 17.0973L24.6093 17.1318L24.7061 17.1732L24.789 17.2146L24.865 17.2697L24.9342 17.3249L24.9894 17.3938L25.0239 17.449L25.0515 17.5042L25.0792 17.5662L25.0999 17.6352L25.1137 17.7109L25.121 17.7867V17.8694V17.959L25.1137 18.0555L25.1072 18.152L25.0865 18.2623L25.0658 18.3726L25.0035 18.6069L24.9275 18.8688L24.8515 19.0894L24.7685 19.303L24.6787 19.5029L24.5819 19.689L24.5335 19.7717L24.4851 19.8544L24.4298 19.9371L24.3676 20.0129L24.3053 20.0887L24.2431 20.1576L24.174 20.2265L24.1048 20.2886L24.0288 20.3437L23.9528 20.4058L23.8698 20.454L23.78 20.5092L23.6901 20.5574L23.5934 20.5988L23.4966 20.6402L23.393 20.6747L23.2824 20.716L23.1649 20.7436L23.0405 20.7711L22.9162 20.7987L22.7779 20.8194L22.6397 20.84L22.4946 20.8539L22.3426 20.8677L22.3426 20.8687ZM32.1696 22.7848L33.5863 17.7534L33.6416 22.7848H32.1697H32.1696ZM34.3258 14.7346H30.9533L28.6313 22.7848H25.0516L25.2175 22.7159L25.3833 22.647L25.5423 22.5781L25.7012 22.5023L25.8532 22.4265L25.9984 22.3369L26.1435 22.2542L26.2817 22.1646L26.4199 22.0681L26.5512 21.9716L26.6756 21.8751L26.8 21.7648L26.9175 21.6615L27.0281 21.5443L27.1386 21.434L27.2423 21.3099L27.346 21.1928L27.4427 21.0618L27.5325 20.9378L27.6224 20.7999L27.7053 20.6621L27.7813 20.5242L27.8574 20.3795L27.9265 20.2279L27.9956 20.0762L28.0579 19.9246L28.1131 19.7661L28.1684 19.6006L28.2099 19.4352L28.2583 19.2698L28.2928 19.0906L28.3273 18.9183L28.3758 18.6426L28.4172 18.3807L28.4448 18.1326L28.4655 17.8982L28.4728 17.6639L28.4655 17.4502L28.459 17.2366L28.4314 17.0367L28.4038 16.8506L28.3554 16.6645L28.307 16.4922L28.2378 16.3268L28.1618 16.1683L28.0789 16.0097L27.9821 15.865L27.8715 15.7272L27.7817 15.6307L27.6919 15.5342L27.5951 15.4515L27.4914 15.3757L27.3809 15.2999L27.2703 15.231L27.1528 15.1689L27.0353 15.1138L26.9109 15.0586L26.7866 15.0172L26.6552 14.9758L26.5239 14.9345L26.3857 14.9L26.2475 14.8724L26.1093 14.8449L25.9642 14.8242L25.667 14.7828L25.3699 14.7621L25.0658 14.7415L24.7548 14.7349H24.1328H23.5178H23.3243H22.9788H22.5503H22.0734H21.6104H21.2165H20.9401H20.8364V3.34188H34.3261V14.7349L34.3258 14.7346ZM42.5219 22.7848H40.497L43.5654 17.9602L42.5219 22.7848V22.7848ZM50.0614 14.962L50.0541 17.7534L49.8814 17.9946L49.7224 18.2428L49.5635 18.4909L49.4183 18.739L49.2801 18.9871L49.1419 19.2422L49.0244 19.4903L48.907 19.7384L48.7964 19.9796L48.6996 20.2278L48.6029 20.469L48.52 20.7033L48.4439 20.9377L48.3748 21.1651L48.3126 21.3857L48.2572 21.6062L48.2227 21.751L48.1882 21.9026L48.1537 22.0473L48.126 22.199L48.0984 22.3437L48.0777 22.4884L48.057 22.6332L48.0432 22.7848H46.0598L47.7529 14.7552L42.0447 14.7487L36.9377 22.7852H36.5645V3.34187H50.0611V14.9624L50.0614 14.962ZM57.8429 26.0725L57.5596 26.1207L57.2693 26.1621L56.9791 26.2034L56.6957 26.2379L56.4124 26.2655L56.129 26.2862L55.8526 26.3H55.5762H55.3965L55.2168 26.2934L55.0441 26.2796L54.8713 26.2589L54.7054 26.2314L54.5465 26.2038L54.3875 26.1693L54.2355 26.128L54.0904 26.0797L53.9453 26.0315L53.807 25.9695L53.6757 25.9074L53.5444 25.8316L53.42 25.7558L53.3026 25.6731L53.192 25.5904L53.0814 25.4939L52.9847 25.3906L52.8879 25.2872L52.7981 25.17L52.7152 25.0528L52.6391 24.9219L52.57 24.7909L52.5008 24.6531L52.4455 24.5083L52.3971 24.3498L52.3557 24.1913L52.3142 24.0259L52.2866 23.8536L52.2659 23.6744L52.2521 23.4883L52.2448 23.2953H58.5335L57.8425 26.0729L57.8429 26.0725ZM65.8179 22.7848H62.4178L62.9776 20.5379H56.1636L55.6038 22.7848H52.3074V22.323L52.3489 22.13L52.3834 21.9371L52.4248 21.7303L52.4662 21.5235L52.5285 21.2961L52.5907 21.0686L52.6598 20.8412L52.7359 20.6206L52.8188 20.4001L52.9086 20.1795L53.0054 19.9658L53.1021 19.7522L53.2127 19.5385L53.3233 19.3386L53.4408 19.1319L53.5721 18.9389L53.7034 18.7459L53.8347 18.5598L53.9798 18.3806L54.1318 18.2083L54.2908 18.0429L54.4497 17.8913L54.6225 17.7396L54.7953 17.5949L54.9749 17.4639L55.1684 17.3399L55.3619 17.2296L55.5623 17.1262L55.7697 17.0297L55.9839 16.947L56.205 16.8781L56.4331 16.8229L56.6681 16.7747L56.9099 16.7402L57.1587 16.7195L57.4144 16.713L57.6148 16.7195L57.8152 16.7333L58.0156 16.7609L58.2091 16.8022L58.3059 16.8298L58.3957 16.8573L58.4856 16.8849L58.5685 16.9262L58.6514 16.9607L58.7344 17.009L58.8104 17.0572L58.8864 17.1054L58.9556 17.1675L59.0247 17.2295L59.0869 17.2916L59.1492 17.3674L59.2045 17.4363L59.2529 17.519L59.2943 17.6086L59.3358 17.6982L59.3703 17.7947L59.3979 17.8981L59.4186 18.0014L59.4393 18.1186L59.4467 18.2358V18.3598V18.4908L59.4328 18.6286H63.4963L63.5586 18.3461L63.6139 18.0221L63.6415 17.8498L63.6553 17.6637L63.6691 17.4776V17.2846L63.6626 17.0848L63.6419 16.878L63.6212 16.7815L63.6074 16.6781L63.5798 16.5747L63.5522 16.4713L63.5176 16.3611L63.4831 16.2577L63.4417 16.1543L63.3932 16.0509L63.3448 15.9475L63.2826 15.8441L63.2204 15.7407L63.1512 15.6374L63.0683 15.5271L62.9785 15.4237L62.8886 15.3203L62.7919 15.2238L62.6882 15.1273L62.5777 15.0377L62.4671 14.955L62.3496 14.8723L62.2252 14.7896L62.1008 14.7207L61.9695 14.6518L61.8313 14.5829L61.6931 14.5208L61.548 14.4588L61.3959 14.4036L61.2439 14.3484L61.0919 14.3002L60.926 14.2588L60.767 14.2174L60.5943 14.1761L60.4215 14.1416L60.2487 14.1071L60.0691 14.0795L59.8825 14.0589L59.5024 14.0175L59.1154 13.983L58.7077 13.9692L58.293 13.9626L57.982 13.9692L57.6572 13.9757L57.3186 13.9964L56.9662 14.0239L56.5999 14.0653L56.2267 14.1135L55.8466 14.1756L55.4596 14.2583L55.2661 14.2997L55.0657 14.3479L54.8722 14.4031L54.6718 14.4583L54.4714 14.5203L54.271 14.5892L54.0706 14.6581L53.8771 14.7339L53.6767 14.8166L53.4763 14.9062L53.2828 14.9958L53.0823 15.0923L52.8888 15.1957L52.6953 15.306L52.5018 15.4163L52.3083 15.5403V3.34087H65.8188V22.7842L65.8179 22.7848Z" fill="#00338D"/>
<path d="M85.7039 25V18.7891H82.1063L79.5164 25H78.2859L85.3875 7.79688H86.8289V25H85.7039ZM85.7039 17.6289V13.293L85.7742 9.13281C85.657 9.53906 85.4539 10.1328 85.1649 10.9141C84.8758 11.6953 83.993 13.9336 82.5164 17.6289H85.7039ZM91.9734 25.2344C91.0672 25.2344 90.3719 24.9219 89.8875 24.2969C89.4109 23.6719 89.1727 22.7695 89.1727 21.5898C89.1727 19.8945 89.4188 18.2812 89.9109 16.75C90.4031 15.2109 91.0399 14.043 91.8211 13.2461C92.6024 12.4414 93.4774 12.0391 94.4461 12.0391C95.118 12.0391 95.6805 12.168 96.1336 12.4258L95.6766 13.4336C95.2625 13.207 94.8211 13.0938 94.3524 13.0938C93.6336 13.0938 92.9734 13.4727 92.3719 14.2305C91.7781 14.9883 91.2859 16.0703 90.8953 17.4766C90.5125 18.8828 90.3211 20.2617 90.3211 21.6133C90.3211 23.3555 90.9461 24.2266 92.1961 24.2266C92.6883 24.2266 93.2469 24.0703 93.8719 23.7578V24.7656C93.2859 25.0781 92.6531 25.2344 91.9734 25.2344ZM99.0399 25.2344C98.1024 25.2344 97.3719 24.9102 96.8484 24.2617C96.325 23.6055 96.0633 22.6914 96.0633 21.5195C96.0633 19.8477 96.2977 18.2812 96.7664 16.8203C97.243 15.3516 97.8836 14.1875 98.6883 13.3281C99.5008 12.4688 100.352 12.0391 101.243 12.0391C101.923 12.0391 102.446 12.2383 102.813 12.6367C103.188 13.0273 103.376 13.6211 103.376 14.418C103.376 15.3789 103.141 16.2188 102.673 16.9375C102.212 17.6562 101.548 18.1914 100.68 18.543C99.8211 18.8945 98.7938 19.0703 97.5984 19.0703H97.4578C97.2938 19.8438 97.2117 20.6211 97.2117 21.4023C97.2117 23.2852 97.9305 24.2266 99.368 24.2266C99.7352 24.2266 100.079 24.1758 100.399 24.0742C100.727 23.9727 101.098 23.8008 101.513 23.5586V24.6836C100.856 25.0508 100.032 25.2344 99.0399 25.2344ZM101.055 13.0703C100.36 13.0703 99.7 13.5312 99.075 14.4531C98.45 15.375 97.9578 16.5938 97.5984 18.1094C100.716 18.1094 102.274 16.8711 102.274 14.3945C102.274 13.9805 102.184 13.6562 102.005 13.4219C101.833 13.1875 101.516 13.0703 101.055 13.0703Z" fill="#00338D"/>
</svg>
