<svg width="33" height="32" viewBox="0 0 33 32" fill="none" xmlns="http://www.w3.org/2000/svg">
<path d="M22.941 2.66669H9.60765C5.92575 2.66669 2.94098 5.65146 2.94098 9.33335V22.6667C2.94098 26.3486 5.92575 29.3334 9.60765 29.3334H22.941C26.6229 29.3334 29.6076 26.3486 29.6076 22.6667V9.33335C29.6076 5.65146 26.6229 2.66669 22.941 2.66669Z" stroke="#374151" stroke-width="2.67" stroke-linecap="round" stroke-linejoin="round"/>
<path d="M21.6077 15.16C21.7722 16.2697 21.5827 17.403 21.066 18.3987C20.5494 19.3945 19.7319 20.2019 18.7299 20.7063C17.7278 21.2106 16.5923 21.3862 15.4847 21.2079C14.3772 21.0297 13.354 20.5068 12.5608 19.7136C11.7676 18.9204 11.2447 17.8972 11.0665 16.7897C10.8882 15.6821 11.0638 14.5466 11.5681 13.5445C12.0725 12.5425 12.88 11.725 13.8757 11.2084C14.8714 10.6917 16.0047 10.5022 17.1144 10.6667C18.2463 10.8345 19.2942 11.362 20.1033 12.1711C20.9124 12.9802 21.4399 14.0281 21.6077 15.16Z" stroke="#374151" stroke-width="2.67" stroke-linecap="round" stroke-linejoin="round"/>
<path d="M23.6076 8.66669H23.6209" stroke="#374151" stroke-width="2.67" stroke-linecap="round" stroke-linejoin="round"/>
</svg>
