<svg width="33" height="33" viewBox="0 0 33 33" fill="none" xmlns="http://www.w3.org/2000/svg">
<g clip-path="url(#clip0_703_870)">
<path d="M30.8039 4.05107C29.5271 4.9517 28.1134 5.64055 26.6172 6.09107C25.8142 5.16775 24.747 4.51332 23.56 4.2163C22.3729 3.91928 21.1232 3.99399 19.98 4.43034C18.8368 4.86668 17.8552 5.6436 17.1679 6.65602C16.4806 7.66844 16.1208 8.86751 16.1372 10.0911V11.4244C13.7941 11.4852 11.4723 10.9655 9.37859 9.91166C7.28491 8.85784 5.48434 7.30258 4.13725 5.3844C4.13725 5.3844 -1.19608 17.3844 10.8039 22.7177C8.05795 24.5817 4.78679 25.5163 1.47058 25.3844C13.4706 32.0511 28.1372 25.3844 28.1372 10.0511C28.136 9.67967 28.1003 9.30919 28.0306 8.9444C29.3914 7.60239 30.3517 5.90802 30.8039 4.05107Z" stroke="#374151" stroke-width="2.67" stroke-linecap="round" stroke-linejoin="round"/>
</g>
<defs>
<clipPath id="clip0_703_870">
<rect width="32" height="32" fill="white" transform="translate(0.137268 0.0510254)"/>
</clipPath>
</defs>
</svg>
